<svg width="35" height="36" viewBox="0 0 35 36" fill="none" xmlns="http://www.w3.org/2000/svg">
<path d="M17.5 0.9375C14.1254 0.9375 10.8265 1.9382 8.02059 3.81305C5.21468 5.6879 3.02773 8.3527 1.73631 11.4705C0.444893 14.5882 0.106999 18.0189 0.765359 21.3287C1.42372 24.6385 3.04876 27.6788 5.435 30.065C7.82123 32.4512 10.8615 34.0763 14.1713 34.7346C17.4811 35.393 20.9118 35.0551 24.0295 33.7637C27.1473 32.4723 29.8121 30.2853 31.687 27.4794C33.5618 24.6735 34.5625 21.3746 34.5625 18C34.5569 13.4765 32.7574 9.13984 29.5588 5.94122C26.3602 2.74261 22.0235 0.943144 17.5 0.9375ZM24.0625 19.3125H18.8125V24.5625C18.8125 24.9106 18.6742 25.2444 18.4281 25.4906C18.1819 25.7367 17.8481 25.875 17.5 25.875C17.1519 25.875 16.8181 25.7367 16.5719 25.4906C16.3258 25.2444 16.1875 24.9106 16.1875 24.5625V19.3125H10.9375C10.5894 19.3125 10.2556 19.1742 10.0094 18.9281C9.76329 18.6819 9.62501 18.3481 9.62501 18C9.62501 17.6519 9.76329 17.3181 10.0094 17.0719C10.2556 16.8258 10.5894 16.6875 10.9375 16.6875H16.1875V11.4375C16.1875 11.0894 16.3258 10.7556 16.5719 10.5094C16.8181 10.2633 17.1519 10.125 17.5 10.125C17.8481 10.125 18.1819 10.2633 18.4281 10.5094C18.6742 10.7556 18.8125 11.0894 18.8125 11.4375V16.6875H24.0625C24.4106 16.6875 24.7444 16.8258 24.9906 17.0719C25.2367 17.3181 25.375 17.6519 25.375 18C25.375 18.3481 25.2367 18.6819 24.9906 18.9281C24.7444 19.1742 24.4106 19.3125 24.0625 19.3125Z" fill="black"/>
</svg>
