<svg width="22" height="22" viewBox="0 0 22 22" fill="none" xmlns="http://www.w3.org/2000/svg">
<path d="M20.75 9.875H20.3075C20.0525 7.79354 19.1084 5.85724 17.6256 4.37442C16.1428 2.89159 14.2065 1.94751 12.125 1.6925V1.25C12.125 0.951631 12.0065 0.665483 11.7955 0.454505C11.5845 0.243526 11.2984 0.125 11 0.125C10.7016 0.125 10.4155 0.243526 10.2045 0.454505C9.99353 0.665483 9.875 0.951631 9.875 1.25V1.6925C7.79354 1.94751 5.85724 2.89159 4.37442 4.37442C2.89159 5.85724 1.94751 7.79354 1.6925 9.875H1.25C0.951631 9.875 0.665483 9.99353 0.454505 10.2045C0.243526 10.4155 0.125 10.7016 0.125 11C0.125 11.2984 0.243526 11.5845 0.454505 11.7955C0.665483 12.0065 0.951631 12.125 1.25 12.125H1.6925C1.94751 14.2065 2.89159 16.1428 4.37442 17.6256C5.85724 19.1084 7.79354 20.0525 9.875 20.3075V20.75C9.875 21.0484 9.99353 21.3345 10.2045 21.5455C10.4155 21.7565 10.7016 21.875 11 21.875C11.2984 21.875 11.5845 21.7565 11.7955 21.5455C12.0065 21.3345 12.125 21.0484 12.125 20.75V20.3075C14.2065 20.0525 16.1428 19.1084 17.6256 17.6256C19.1084 16.1428 20.0525 14.2065 20.3075 12.125H20.75C21.0484 12.125 21.3345 12.0065 21.5455 11.7955C21.7565 11.5845 21.875 11.2984 21.875 11C21.875 10.7016 21.7565 10.4155 21.5455 10.2045C21.3345 9.99353 21.0484 9.875 20.75 9.875ZM12.125 18.0312V17.75C12.125 17.4516 12.0065 17.1655 11.7955 16.9545C11.5845 16.7435 11.2984 16.625 11 16.625C10.7016 16.625 10.4155 16.7435 10.2045 16.9545C9.99353 17.1655 9.875 17.4516 9.875 17.75V18.0312C8.39504 17.7916 7.02808 17.0922 5.96796 16.032C4.90784 14.9719 4.20837 13.605 3.96875 12.125H4.25C4.54837 12.125 4.83452 12.0065 5.0455 11.7955C5.25647 11.5845 5.375 11.2984 5.375 11C5.375 10.7016 5.25647 10.4155 5.0455 10.2045C4.83452 9.99353 4.54837 9.875 4.25 9.875H3.96875C4.20837 8.39504 4.90784 7.02808 5.96796 5.96796C7.02808 4.90784 8.39504 4.20837 9.875 3.96875V4.25C9.875 4.54837 9.99353 4.83452 10.2045 5.0455C10.4155 5.25647 10.7016 5.375 11 5.375C11.2984 5.375 11.5845 5.25647 11.7955 5.0455C12.0065 4.83452 12.125 4.54837 12.125 4.25V3.96875C13.605 4.20837 14.9719 4.90784 16.032 5.96796C17.0922 7.02808 17.7916 8.39504 18.0312 9.875H17.75C17.4516 9.875 17.1655 9.99353 16.9545 10.2045C16.7435 10.4155 16.625 10.7016 16.625 11C16.625 11.2984 16.7435 11.5845 16.9545 11.7955C17.1655 12.0065 17.4516 12.125 17.75 12.125H18.0312C17.7916 13.605 17.0922 14.9719 16.032 16.032C14.9719 17.0922 13.605 17.7916 12.125 18.0312ZM11 6.875C10.1842 6.875 9.38663 7.11693 8.70827 7.57019C8.02992 8.02345 7.50121 8.66769 7.189 9.42143C6.87679 10.1752 6.7951 11.0046 6.95426 11.8047C7.11343 12.6049 7.50629 13.3399 8.08318 13.9168C8.66008 14.4937 9.39508 14.8866 10.1953 15.0457C10.9954 15.2049 11.8248 15.1232 12.5786 14.811C13.3323 14.4988 13.9766 13.9701 14.4298 13.2917C14.8831 12.6134 15.125 11.8158 15.125 11C15.1238 9.90636 14.6888 8.85787 13.9154 8.08455C13.1421 7.31124 12.0936 6.87624 11 6.875ZM11 12.875C10.6292 12.875 10.2666 12.765 9.95831 12.559C9.64996 12.353 9.40964 12.0601 9.26773 11.7175C9.12581 11.3749 9.08868 10.9979 9.16103 10.6342C9.23337 10.2705 9.41195 9.9364 9.67418 9.67418C9.9364 9.41195 10.2705 9.23337 10.6342 9.16103C10.9979 9.08868 11.3749 9.12581 11.7175 9.26773C12.0601 9.40964 12.353 9.64996 12.559 9.95831C12.765 10.2666 12.875 10.6292 12.875 11C12.875 11.4973 12.6775 11.9742 12.3258 12.3258C11.9742 12.6775 11.4973 12.875 11 12.875Z" fill="black"/>
</svg>
