<svg width="32" height="32" viewBox="0 0 32 32" fill="none" xmlns="http://www.w3.org/2000/svg">
<path d="M29.8667 0H2.13333C1.56754 0 1.02492 0.224761 0.624839 0.624839C0.224761 1.02492 0 1.56754 0 2.13333V29.8667C0 30.4325 0.224761 30.9751 0.624839 31.3752C1.02492 31.7752 1.56754 32 2.13333 32H29.8667C30.4325 32 30.9751 31.7752 31.3752 31.3752C31.7752 30.9751 32 30.4325 32 29.8667V2.13333C32 1.56754 31.7752 1.02492 31.3752 0.624839C30.9751 0.224761 30.4325 0 29.8667 0ZM24.5333 23.4667H7.46667C7.18377 23.4667 6.91246 23.3543 6.71242 23.1542C6.51238 22.9542 6.4 22.6829 6.4 22.4C6.4 22.1171 6.51238 21.8458 6.71242 21.6458C6.91246 21.4457 7.18377 21.3333 7.46667 21.3333H24.5333C24.8162 21.3333 25.0875 21.4457 25.2876 21.6458C25.4876 21.8458 25.6 22.1171 25.6 22.4C25.6 22.6829 25.4876 22.9542 25.2876 23.1542C25.0875 23.3543 24.8162 23.4667 24.5333 23.4667ZM24.5333 17.0667H7.46667C7.18377 17.0667 6.91246 16.9543 6.71242 16.7542C6.51238 16.5542 6.4 16.2829 6.4 16C6.4 15.7171 6.51238 15.4458 6.71242 15.2458C6.91246 15.0457 7.18377 14.9333 7.46667 14.9333H24.5333C24.8162 14.9333 25.0875 15.0457 25.2876 15.2458C25.4876 15.4458 25.6 15.7171 25.6 16C25.6 16.2829 25.4876 16.5542 25.2876 16.7542C25.0875 16.9543 24.8162 17.0667 24.5333 17.0667ZM24.5333 10.6667H7.46667C7.18377 10.6667 6.91246 10.5543 6.71242 10.3542C6.51238 10.1542 6.4 9.8829 6.4 9.6C6.4 9.3171 6.51238 9.04579 6.71242 8.84575C6.91246 8.64571 7.18377 8.53333 7.46667 8.53333H24.5333C24.8162 8.53333 25.0875 8.64571 25.2876 8.84575C25.4876 9.04579 25.6 9.3171 25.6 9.6C25.6 9.8829 25.4876 10.1542 25.2876 10.3542C25.0875 10.5543 24.8162 10.6667 24.5333 10.6667Z" fill="black"/>
</svg>
