<svg width="39" height="32" viewBox="0 0 39 32" fill="none" xmlns="http://www.w3.org/2000/svg">
<path d="M37.1785 16.4145C37.6602 16.3593 38.1311 16.5819 38.3896 16.9869C38.648 17.3919 38.648 17.9073 38.3896 18.3123C38.1311 18.7173 37.6602 18.9399 37.1785 18.8847H35.3982V23.5434C35.4027 25.7184 34.5305 27.8058 32.974 29.3453C31.4176 30.8849 29.3047 31.75 27.1013 31.75H25.7408C25.0451 31.75 24.4812 31.1933 24.4812 30.5066C24.4812 29.8199 25.0451 29.2632 25.7408 29.2632H27.1013C30.2752 29.2268 32.8287 26.6766 32.8285 23.5434V18.8847H28.109V20.7416C28.109 21.7749 27.6931 22.7659 26.953 23.4965C26.2128 24.2272 25.2088 24.6376 24.1621 24.6376H14.5551C12.3753 24.6376 10.6082 22.8933 10.6082 20.7416V18.8847H5.95582V23.5434C5.95582 26.7023 8.55007 29.2632 11.7502 29.2632H13.1946C13.8903 29.2632 14.4543 29.8199 14.4543 30.5066C14.4543 31.1933 13.8903 31.75 13.1946 31.75H11.8342C7.22889 31.7502 3.48256 28.0892 3.43651 23.5434V18.8847H1.48824C1.00659 18.9399 0.535622 18.7173 0.277194 18.3123C0.0187672 17.9073 0.0187672 17.3919 0.277194 16.9869C0.535622 16.5819 1.00659 16.3593 1.48824 16.4145H37.1785ZM24.1453 7.36237C25.1921 7.36237 26.196 7.77284 26.9362 8.5035C27.6763 9.23415 28.0922 10.2251 28.0922 11.2584V13.3971C28.097 13.5216 28.0489 13.6424 27.9597 13.7305C27.8704 13.8186 27.748 13.866 27.6219 13.8613H11.0784C10.9523 13.866 10.8299 13.8186 10.7407 13.7305C10.6514 13.6424 10.6034 13.5216 10.6082 13.3971V11.2584C10.6082 9.10669 12.3753 7.36237 14.5551 7.36237H24.1453ZM27.1013 0.25C31.68 0.331369 35.3485 4.01897 35.3478 8.53947V10.3134C35.3478 11.0001 34.7838 11.5568 34.0882 11.5568C33.3925 11.5568 32.8285 11.0001 32.8285 10.3134V8.53947C32.8509 7.01962 32.2595 5.55347 31.185 4.46475C30.1104 3.37604 28.641 2.7543 27.1013 2.73684H25.7408C25.0451 2.73684 24.4812 2.18014 24.4812 1.49342C24.4812 0.806699 25.0451 0.25 25.7408 0.25H27.1013ZM13.1107 0.25C13.8026 0.258929 14.3613 0.810431 14.3703 1.49342C14.3613 2.17641 13.8026 2.72791 13.1107 2.73684H11.7502C10.1988 2.73668 8.7121 3.35066 7.62299 4.44132C6.53388 5.53197 5.93334 7.00819 5.95582 8.53947V10.3134C5.94678 10.9964 5.38807 11.5479 4.69617 11.5568H4.67937L4.51015 11.5435C3.9018 11.4546 3.43651 10.937 3.43651 10.3134V8.53947C3.43628 3.9935 7.14514 0.29546 11.7502 0.25H13.1107Z" fill="black"/>
</svg>
