<svg width="34" height="30" viewBox="0 0 34 30" fill="none" xmlns="http://www.w3.org/2000/svg">
<path d="M31.1041 5.8125H4.85413C4.50603 5.8125 4.17219 5.67422 3.92605 5.42808C3.67991 5.18194 3.54163 4.8481 3.54163 4.5C3.54163 4.1519 3.67991 3.81806 3.92605 3.57192C4.17219 3.32578 4.50603 3.1875 4.85413 3.1875H27.1666C27.5147 3.1875 27.8486 3.04922 28.0947 2.80308C28.3408 2.55694 28.4791 2.2231 28.4791 1.875C28.4791 1.5269 28.3408 1.19306 28.0947 0.946923C27.8486 0.700781 27.5147 0.5625 27.1666 0.5625H4.85413C3.80984 0.5625 2.80832 0.977343 2.06989 1.71577C1.33147 2.45419 0.916626 3.45571 0.916626 4.5V25.5C0.916626 26.5443 1.33147 27.5458 2.06989 28.2842C2.80832 29.0227 3.80984 29.4375 4.85413 29.4375H31.1041C31.8003 29.4375 32.468 29.1609 32.9603 28.6687C33.4526 28.1764 33.7291 27.5087 33.7291 26.8125V8.4375C33.7291 7.74131 33.4526 7.07363 32.9603 6.58135C32.468 6.08906 31.8003 5.8125 31.1041 5.8125ZM25.1979 18.9375C24.8085 18.9375 24.4279 18.822 24.1041 18.6057C23.7803 18.3894 23.528 18.0819 23.379 17.7222C23.23 17.3624 23.191 16.9666 23.267 16.5847C23.3429 16.2028 23.5304 15.852 23.8058 15.5766C24.0811 15.3013 24.4319 15.1138 24.8138 15.0378C25.1957 14.9619 25.5915 15.0009 25.9513 15.1499C26.311 15.2989 26.6185 15.5512 26.8348 15.875C27.0512 16.1987 27.1666 16.5794 27.1666 16.9688C27.1666 17.4909 26.9592 17.9917 26.59 18.3609C26.2208 18.7301 25.72 18.9375 25.1979 18.9375Z" fill="black"/>
</svg>
