<svg width="21" height="21" viewBox="0 0 21 21" fill="none" xmlns="http://www.w3.org/2000/svg">
<path d="M20.9616 16.7628C20.9305 16.6694 20.8812 16.583 20.8167 16.5086C20.7522 16.4342 20.6736 16.3732 20.5855 16.3291C20.4974 16.2851 20.4015 16.2588 20.3032 16.2518C20.205 16.2449 20.1063 16.2573 20.0129 16.2885L18.3797 16.8331L15.6704 11.4144C15.6081 11.2899 15.5124 11.1852 15.394 11.1121C15.2756 11.0389 15.1392 11.0001 15.0001 11H7.50006V8.75001H12.7501C12.949 8.75001 13.1397 8.671 13.2804 8.53034C13.421 8.38969 13.5001 8.19893 13.5001 8.00001C13.5001 7.8011 13.421 7.61034 13.2804 7.46968C13.1397 7.32903 12.949 7.25001 12.7501 7.25001H7.50006V6.40626C8.20705 6.22372 8.8232 5.78959 9.23301 5.18526C9.64282 4.58092 9.81815 3.84787 9.72615 3.12351C9.63414 2.39915 9.28111 1.73321 8.73323 1.25052C8.18535 0.76783 7.48024 0.501526 6.75006 0.501526C6.01988 0.501526 5.31476 0.76783 4.76688 1.25052C4.219 1.73321 3.86598 2.39915 3.77397 3.12351C3.68196 3.84787 3.8573 4.58092 4.26711 5.18526C4.67692 5.78959 5.29307 6.22372 6.00006 6.40626V7.4197C4.38293 7.78931 2.95852 8.74145 1.99871 10.0944C1.03889 11.4474 0.610887 13.1064 0.796377 14.7548C0.981867 16.4032 1.76787 17.9256 3.00435 19.0314C4.24084 20.1373 5.84123 20.749 7.50006 20.75C10.6426 20.75 13.471 18.621 14.2266 15.6875C14.2512 15.5921 14.2568 15.4928 14.2431 15.3952C14.2293 15.2976 14.1965 15.2037 14.1464 15.1188C14.0963 15.034 14.0301 14.9598 13.9513 14.9005C13.8726 14.8412 13.783 14.7981 13.6876 14.7735C13.5921 14.7488 13.4928 14.7432 13.3952 14.757C13.2977 14.7708 13.2038 14.8036 13.1189 14.8537C13.034 14.9037 12.9598 14.97 12.9006 15.0487C12.8413 15.1275 12.7981 15.2171 12.7735 15.3125C12.196 17.5625 9.92912 19.25 7.50006 19.25C6.23931 19.2496 5.02081 18.7955 4.06728 17.9707C3.11374 17.1459 2.48886 16.0055 2.30683 14.758C2.12481 13.5105 2.3978 12.2391 3.07592 11.1762C3.75404 10.1134 4.79199 9.33003 6.00006 8.96939V11.75C6.00006 11.9489 6.07908 12.1397 6.21973 12.2803C6.36038 12.421 6.55115 12.5 6.75006 12.5H14.536L17.3288 18.0856C17.4097 18.247 17.5462 18.3738 17.713 18.4427C17.8799 18.5116 18.066 18.5179 18.2372 18.4606L20.4872 17.7106C20.6758 17.6477 20.8316 17.5126 20.9205 17.3349C21.0095 17.1572 21.0243 16.9514 20.9616 16.7628ZM5.25006 3.50001C5.25006 3.20334 5.33803 2.91333 5.50285 2.66666C5.66768 2.41998 5.90195 2.22773 6.17603 2.11419C6.45012 2.00066 6.75172 1.97096 7.0427 2.02884C7.33367 2.08671 7.60094 2.22957 7.81072 2.43935C8.0205 2.64913 8.16336 2.91641 8.22124 3.20738C8.27912 3.49835 8.24941 3.79995 8.13588 4.07404C8.02235 4.34813 7.83009 4.5824 7.58341 4.74722C7.33674 4.91204 7.04673 5.00001 6.75006 5.00001C6.35223 5.00001 5.9707 4.84198 5.6894 4.56067C5.40809 4.27937 5.25006 3.89784 5.25006 3.50001Z" fill="black"/>
</svg>
